# xmcd
#
# Track frame offsets: 
#        150
#        16913
#        33985
#        56443
#        75640
#        92603
#        107298
#        123658
#        142598
#        156290
#        176823
#        192188
#        206440
#        221740
#        235178
#        250148
#        264865
#        281555
#
# Disc length: 3975 seconds
#
# Revision: 0
# Processed by: cddbd v1.5.2PL0 Copyright (c) Steve Scherf et al.
# Submitted via: ExactAudioCopy v0.99pb4
#
DISCID=ea0f8512
DTITLE=Big John Russell - Juilee Hit Album
DYEAR=1900
DGENRE=Soul
TTITLE0=Your Love Is Deep And So Real
TTITLE1=Ram Jam
TTITLE2=Mabel
TTITLE3=Higher Higher
TTITLE4=Sweetheart
TTITLE5=Baby Won't You Be My Lady
TTITLE6=Hey Joe
TTITLE7=I'm In Love
TTITLE8=Gimme Your Lovin'
TTITLE9=Our Kind Of Love Is Different
TTITLE10=Funky Amsterdam
TTITLE11=Never Break A Heart
TTITLE12=I'm A Man And A Half
TTITLE13=I Never Loved A Woman The Way
TTITLE14=Sweet Lorraine
TTITLE15=Hoky Poky
TTITLE16=Dancin' Song
TTITLE17=Makin Love Breakin' Love
EXTD=
EXTT0=
EXTT1=
EXTT2=
EXTT3=
EXTT4=
EXTT5=
EXTT6=
EXTT7=
EXTT8=
EXTT9=
EXTT10=
EXTT11=
EXTT12=
EXTT13=
EXTT14=
EXTT15=
EXTT16=
EXTT17=
PLAYORDER=
